<?xml version="1.0" standalone="no"?>
<!DOCTYPE svg PUBLIC "-//W3C//DTD SVG 20010904//EN"
 "http://www.w3.org/TR/2001/REC-SVG-20010904/DTD/svg10.dtd">
<svg version="1.0" xmlns="http://www.w3.org/2000/svg"
 width="300.000000pt" height="298.000000pt" viewBox="0 0 300.000000 298.000000"
 preserveAspectRatio="xMidYMid meet">
<metadata>
Created by potrace 1.10, written by Peter Selinger 2001-2011
</metadata>
<g transform="translate(0.000000,298.000000) scale(0.100000,-0.100000)"
fill="#000000" stroke="none">
<path d="M1454 2952 c-89 -65 -238 -245 -274 -332 -9 -22 -17 -29 -29 -25 -16
6 -112 27 -184 39 l-39 7 4 -121 3 -120 -101 6 c-56 4 -114 4 -129 0 l-28 -7
6 -107 c6 -136 29 -236 77 -337 42 -89 65 -123 75 -113 4 4 -13 49 -38 100
-49 99 -69 170 -87 310 -18 130 -20 128 109 128 139 0 141 2 141 128 l0 92 33
0 c17 0 57 -6 87 -13 85 -19 95 -15 148 69 26 42 57 88 70 102 39 45 196 202
202 202 7 0 171 -160 195 -190 10 -14 43 -61 73 -105 29 -44 61 -83 70 -86 8
-3 54 2 101 12 47 10 90 14 94 9 5 -4 8 -48 8 -97 -1 -98 12 -125 61 -125 126
2 182 1 190 -4 12 -8 5 -123 -9 -149 -7 -12 -8 0 -5 39 7 89 -31 114 -147 95
-82 -13 -85 -19 -91 -172 -8 -185 -30 -238 -150 -357 -30 -31 -75 -72 -100
-92 -58 -47 -46 -60 17 -17 87 59 177 160 219 245 l39 78 0 142 0 142 93 7
c51 4 94 6 96 4 7 -9 -15 -176 -30 -233 -58 -216 -186 -352 -391 -417 -40 -12
-70 -26 -68 -30 7 -10 73 -1 118 17 21 8 36 10 33 5 -21 -34 -313 -80 -330
-53 -3 5 2 53 10 108 26 167 -2 408 -56 484 -12 17 -24 29 -26 27 -2 -2 7 -35
20 -73 14 -39 30 -101 37 -139 14 -84 6 -294 -15 -380 -8 -33 -14 -60 -13 -61
1 0 63 2 137 7 98 5 153 13 200 29 278 95 432 335 441 690 l2 85 -129 -1 -129
-2 3 120 3 119 -38 -7 c-49 -8 -152 -31 -178 -38 -16 -5 -24 2 -43 41 -12 27
-45 78 -72 114 -55 74 -214 229 -234 229 -7 0 -31 -13 -52 -28z m821 -804 c-6
-55 -50 -178 -88 -243 -38 -66 -143 -167 -206 -199 -28 -15 -51 -22 -51 -17 0
5 10 13 23 17 30 9 79 44 125 86 90 86 147 190 171 313 14 69 19 85 25 85 3 0
3 -19 1 -42z"/>
<path d="M1447 2886 c-51 -39 -151 -157 -196 -231 -47 -77 -39 -101 42 -140
34 -17 90 -51 124 -77 34 -27 73 -48 85 -48 13 0 39 14 58 30 19 17 43 33 53
36 9 3 17 9 17 12 0 4 17 16 38 26 107 53 112 56 112 94 0 20 -16 58 -30 72
-3 3 -22 31 -44 62 -44 67 -163 182 -195 191 -15 4 -35 -5 -64 -27z m145 -73
c76 -79 178 -217 178 -243 0 -6 -7 -10 -16 -10 -29 0 -154 -72 -205 -118 l-49
-44 -50 46 c-27 26 -86 64 -131 86 -45 22 -84 41 -86 44 -10 10 106 167 180
244 45 45 83 82 87 82 3 0 45 -39 92 -87z"/>
<path d="M1013 2569 c-27 -10 -37 -40 -35 -109 2 -72 17 -98 65 -112 54 -16
69 -4 91 80 23 88 17 117 -26 130 -57 17 -73 19 -95 11z m82 -28 c27 -4 39
-11 38 -21 -2 -16 -36 -153 -39 -158 -1 -1 -22 3 -48 10 l-46 12 0 89 0 89 28
-7 c15 -5 45 -11 67 -14z"/>
<path d="M1935 2573 c-46 -9 -76 -27 -81 -49 -8 -30 23 -159 42 -175 22 -18
90 -1 108 26 21 32 22 167 2 184 -17 14 -43 19 -71 14z m65 -102 c0 -88 0 -89
-27 -95 -16 -3 -38 -8 -50 -12 -20 -5 -23 -3 -23 19 0 14 -8 52 -19 86 l-19
60 62 14 c33 8 64 15 69 16 4 0 7 -39 7 -88z"/>
<path d="M1181 2494 c-19 -25 -26 -48 -34 -119 -6 -45 9 -68 66 -103 29 -17
70 -48 92 -67 47 -42 75 -60 75 -46 0 17 -121 121 -169 146 l-48 24 7 49 c5
26 13 67 19 89 l11 42 57 -25 c62 -28 118 -65 176 -115 l38 -34 -35 -65 c-38
-69 -49 -123 -21 -100 8 7 15 18 15 24 0 6 10 29 21 51 41 76 41 89 2 135 -39
45 -115 97 -181 123 -57 23 -67 22 -91 -9z"/>
<path d="M1750 2513 c-61 -19 -166 -89 -208 -137 -35 -40 -36 -34 16 -148 16
-36 34 -68 40 -72 17 -11 -4 59 -37 119 l-31 58 38 35 c46 43 122 93 184 120
l48 21 9 -37 c9 -34 14 -57 27 -119 3 -17 -7 -27 -52 -53 -58 -33 -138 -101
-155 -132 -16 -30 4 -20 55 26 27 24 73 59 102 78 74 46 86 87 54 183 -19 56
-45 73 -90 58z"/>
<path d="M736 2341 c-16 -18 -17 -30 -11 -93 10 -98 10 -95 30 -163 31 -108
76 -186 148 -262 80 -84 116 -109 194 -133 l55 -17 -28 -20 c-43 -30 -105 -60
-141 -68 l-33 -7 0 49 c0 67 -16 119 -49 155 -24 27 -35 31 -75 31 -179 -3
-192 -243 -16 -304 l30 -11 0 -86 c0 -62 -3 -83 -10 -72 -9 13 -12 12 -25 -4
-23 -30 -19 -77 6 -83 14 -4 18 -11 13 -22 -3 -9 -7 -34 -9 -55 -2 -24 -9 -42
-19 -48 -13 -7 -16 -17 -11 -39 8 -36 -11 -89 -33 -89 -8 0 -21 8 -29 18 -13
16 -14 16 -11 -2 5 -31 33 -42 63 -26 29 16 42 52 28 82 -7 16 -5 26 9 40 10
10 18 31 18 48 0 16 5 41 12 55 9 19 9 28 0 37 -18 18 -14 57 8 85 15 20 20
41 20 93 0 73 -11 90 -77 124 -110 55 -89 208 32 230 59 11 81 -16 89 -113 6
-60 12 -84 28 -101 17 -18 19 -26 10 -39 -23 -31 -24 -42 -7 -61 17 -19 17
-21 2 -38 -10 -10 -17 -26 -17 -35 0 -9 -4 -26 -9 -39 -5 -13 -14 -68 -21
-123 -13 -106 -40 -221 -68 -283 -17 -38 -71 -114 -84 -120 -5 -2 -3 -13 3
-25 6 -13 -2 -8 -21 13 -16 19 -30 40 -30 47 0 19 -88 201 -101 209 -15 9 -55
-32 -79 -82 -26 -57 -93 -124 -123 -124 -28 0 -63 31 -72 62 -3 13 -10 32 -15
43 -15 34 -36 131 -80 370 -23 127 -49 240 -56 252 -21 34 -58 39 -93 14 l-30
-22 10 33 c28 85 63 138 94 138 33 0 75 -74 101 -175 2 -5 12 -41 24 -80 11
-38 36 -135 55 -215 46 -192 54 -218 67 -226 40 -25 -121 608 -176 692 -42 64
-121 47 -162 -35 -38 -76 -61 -154 -47 -158 9 -3 9 -10 -3 -28 -9 -13 -14 -34
-12 -47 3 -20 10 -14 53 45 49 65 73 80 92 55 6 -7 27 -107 47 -223 65 -365
104 -497 155 -525 70 -37 170 46 218 180 18 50 33 57 33 16 0 -13 17 -59 38
-102 21 -44 44 -91 50 -106 6 -15 23 -34 37 -44 21 -13 28 -14 41 -3 8 7 13
20 11 30 -3 10 6 25 23 38 57 42 106 183 135 393 10 71 21 119 32 130 15 17
15 18 0 18 -22 0 -22 2 8 46 14 20 25 41 25 46 0 4 -11 6 -25 2 -42 -10 -30
21 13 34 50 15 122 64 165 111 27 30 38 36 55 30 12 -5 24 -5 26 0 3 4 -27 17
-67 30 -249 77 -386 267 -416 576 l-7 75 31 0 c16 0 59 -3 95 -6 l65 -6 0
-142 c0 -132 2 -145 27 -199 47 -100 134 -198 246 -276 56 -39 50 -12 -8 37
-98 83 -170 165 -203 232 -31 62 -32 71 -35 202 -4 169 -6 171 -126 176 -72 3
-83 1 -100 -17z"/>
<path d="M996 2311 c-16 -17 -19 -39 -20 -130 -1 -61 2 -120 8 -133 5 -13 10
-28 11 -34 9 -39 97 -153 158 -205 105 -88 111 -71 10 29 -57 57 -100 110
-123 152 -34 63 -35 69 -38 193 -4 139 -6 136 56 113 33 -11 34 -14 38 -76 7
-97 40 -215 89 -315 48 -98 71 -132 81 -122 4 3 -11 41 -33 84 -39 76 -92 213
-98 256 -2 12 -8 53 -12 90 -11 75 -29 103 -78 113 -23 4 -35 1 -49 -15z"/>
<path d="M1943 2323 c-32 -6 -63 -50 -63 -89 0 -85 -44 -232 -105 -354 -49
-98 -56 -138 -13 -73 76 114 130 269 143 404 l7 76 38 12 c20 6 41 11 44 11 4
0 6 -57 4 -127 -3 -119 -5 -132 -33 -188 -20 -40 -59 -89 -119 -148 -82 -83
-106 -120 -54 -84 36 24 130 107 122 107 -4 0 4 12 18 28 15 15 41 55 58 90
29 58 31 70 32 182 2 103 0 121 -16 139 -19 21 -23 22 -63 14z"/>
<path d="M1150 2240 c-33 -62 64 -347 154 -455 35 -41 45 -24 14 23 -34 50
-82 147 -108 214 -21 53 -54 217 -46 226 9 8 94 -58 148 -117 55 -59 55 -60
47 -103 -10 -50 -11 -203 -3 -235 10 -38 24 -15 24 39 0 63 7 59 15 -7 3 -28
10 -80 16 -117 6 -37 8 -72 4 -78 -7 -11 -75 -12 -150 -1 -52 7 -108 0 -89
-11 14 -9 94 -18 197 -22 86 -3 88 -2 82 18 -3 12 -12 59 -20 106 -28 160 -14
335 34 458 25 64 27 79 5 61 -28 -23 -58 -122 -80 -264 l-13 -90 4 91 c4 88 3
93 -25 136 -31 47 -103 118 -119 118 -5 0 -11 4 -13 10 -1 5 -17 12 -35 16
-26 5 -33 2 -43 -16z"/>
<path d="M1748 2225 c-26 -19 -68 -61 -93 -92 -45 -57 -46 -59 -40 -113 4 -30
7 -93 6 -140 0 -47 4 -92 9 -100 16 -27 23 39 17 171 l-5 128 41 47 c23 26 68
67 101 91 47 35 54 43 35 43 -13 0 -45 -16 -71 -35z"/>
<path d="M1826 2152 c-21 -104 -51 -183 -116 -299 -50 -90 -57 -121 -14 -68
71 87 147 269 160 385 10 92 -11 80 -30 -18z"/>
<path d="M780 1705 c-17 -18 -21 -30 -15 -52 13 -55 62 -82 93 -51 20 20 14
72 -10 95 -37 33 -44 34 -68 8z m48 -22 c14 -28 22 -83 12 -83 -13 0 -50 51
-50 70 0 32 24 40 38 13z"/>
<path d="M965 1710 c6 -10 98 -60 110 -60 3 0 5 6 5 13 0 7 -20 23 -45 35 -48
23 -80 29 -70 12z"/>
<path d="M1402 1529 c-139 -23 -292 -122 -370 -238 -194 -291 -92 -680 218
-829 105 -50 186 -67 288 -59 175 14 328 102 426 244 182 267 111 627 -159
798 -125 79 -262 107 -403 84z m194 -20 c140 -25 300 -134 369 -253 37 -63 71
-158 79 -221 6 -44 4 -53 -13 -69 -26 -24 -38 -14 -23 19 6 14 8 25 3 25 -11
0 -41 -45 -41 -61 0 -6 -11 -24 -25 -41 -26 -30 -33 -68 -14 -68 25 0 47 22
53 54 6 32 50 75 63 62 13 -12 -27 -167 -58 -232 -66 -135 -211 -250 -364
-289 -301 -77 -619 138 -670 453 -7 41 -6 43 17 37 20 -5 27 0 41 30 21 43 21
55 3 55 -7 0 -16 -13 -19 -30 -9 -43 -27 -37 -27 10 0 43 26 120 41 120 5 0 9
-16 9 -35 0 -24 5 -35 15 -35 23 0 30 46 11 75 -21 32 -29 32 -62 -7 l-27 -33
7 30 c20 81 80 181 150 250 133 131 305 186 482 154z"/>
<path d="M1571 1101 c-11 -16 -30 -50 -41 -75 -18 -43 -43 -66 -56 -53 -3 3 0
15 6 27 16 30 3 39 -16 12 -30 -43 -42 -24 -19 31 14 33 -21 18 -38 -17 -21
-45 -52 -63 -66 -39 -5 10 -7 30 -4 44 3 15 0 30 -6 33 -10 6 -16 -8 -23 -58
-2 -10 -13 -25 -25 -34 -22 -14 -23 -14 -23 23 0 29 -3 36 -17 33 -14 -2 -17
-11 -14 -33 4 -40 8 -45 36 -45 15 0 29 9 36 22 10 19 12 20 21 4 7 -13 5 -23
-9 -39 -16 -19 -16 -20 0 -8 22 17 22 3 0 -21 -15 -17 -15 -18 1 -18 10 0 23
14 31 34 18 42 26 48 71 50 22 1 34 -3 34 -11 0 -15 24 -17 50 -3 14 7 19 5
23 -10 8 -30 35 -35 61 -11 28 26 32 26 39 1 7 -28 41 -25 65 5 13 17 23 22
27 14 4 -6 18 -9 31 -6 16 3 24 0 24 -9 0 -25 29 -15 44 14 8 16 22 34 30 41
14 12 16 10 16 -13 0 -31 24 -44 50 -28 14 9 19 8 24 -3 3 -8 10 -15 15 -15 6
0 8 7 5 15 -4 9 7 28 28 49 31 31 32 35 16 45 -14 9 -21 6 -35 -15 -24 -35
-64 -74 -76 -74 -5 0 -6 15 -3 35 8 41 -6 46 -40 14 l-23 -22 6 37 c8 49 -8
45 -35 -9 -27 -57 -57 -63 -49 -10 7 42 -9 46 -25 8 -13 -32 -47 -73 -60 -73
-29 0 17 125 49 133 17 4 17 5 1 6 -11 1 -18 9 -18 21 0 28 -18 25 -32 -5 -6
-14 -18 -25 -27 -25 -12 0 -13 -2 -3 -8 24 -16 -23 -112 -55 -112 -27 0 -19
50 18 105 16 23 29 50 29 59 0 26 -27 19 -49 -13z m19 -32 c-12 -23 -24 -39
-26 -36 -7 7 28 77 38 77 5 0 -1 -18 -12 -41z"/>
<path d="M1073 1049 c-6 -6 -9 -17 -6 -24 2 -8 0 -22 -6 -33 -13 -24 -5 -52
15 -52 19 0 50 50 45 74 -3 22 -19 46 -30 46 -4 0 -12 -5 -18 -11z m32 -20 c8
-23 1 -34 -14 -24 -13 8 -15 45 -2 45 5 0 13 -9 16 -21z"/>
<path d="M1163 1005 c-27 -65 -28 -75 -8 -75 15 0 38 33 42 60 1 8 5 27 9 43
12 50 -20 30 -43 -28z"/>
<path d="M2000 1476 c0 -22 40 -66 60 -66 32 0 33 19 1 50 -31 32 -61 39 -61
16z"/>
<path d="M2107 1423 c-10 -9 -8 -55 2 -72 11 -17 41 -7 41 13 0 19 -21 66 -30
66 -4 0 -10 -3 -13 -7z"/>
<path d="M2039 1370 c26 -22 46 -22 46 1 0 9 -13 15 -35 17 l-35 2 24 -20z"/>
<path d="M2166 1334 c-3 -9 -6 -31 -6 -50 0 -27 4 -34 19 -34 26 0 36 34 21
71 -14 32 -25 37 -34 13z"/>
<path d="M528 1293 c-31 -33 -84 -146 -94 -200 -9 -54 6 -35 59 72 25 50 51
96 59 103 24 19 52 -10 82 -87 27 -68 56 -110 56 -80 0 8 -12 50 -26 93 -41
122 -84 153 -136 99z"/>
<path d="M2076 1305 c7 -16 35 -35 53 -35 17 0 13 37 -5 44 -30 11 -54 7 -48
-9z"/>
<path d="M746 1225 c-12 -61 16 -103 45 -69 10 13 10 23 -2 57 -18 52 -35 57
-43 12z"/>
<path d="M2221 1246 c-20 -24 -26 -92 -9 -99 27 -10 43 10 42 53 -2 49 -15 68
-33 46z"/>
<path d="M2120 1227 c0 -21 37 -50 55 -44 21 9 19 23 -7 41 -28 20 -48 20 -48
3z"/>
<path d="M710 1107 c0 -51 18 -81 43 -71 23 8 22 41 -3 82 -27 44 -40 40 -40
-11z"/>
<path d="M2150 1136 c0 -16 38 -66 50 -66 11 0 20 27 14 44 -3 7 -16 18 -30
25 -32 14 -34 14 -34 -3z"/>
<path d="M2251 1124 c-25 -32 -28 -82 -5 -91 25 -9 44 24 44 74 0 50 -10 54
-39 17z"/>
<path d="M2170 1027 c0 -47 50 -88 64 -52 9 23 -4 44 -35 61 -28 14 -29 14
-29 -9z"/>
<path d="M2273 1007 c-40 -46 -49 -75 -30 -94 11 -12 19 -13 35 -4 26 14 47
86 35 114 -8 18 -11 17 -40 -16z"/>
<path d="M2170 911 c0 -34 31 -77 48 -67 20 12 14 51 -11 74 -31 29 -37 28
-37 -7z"/>
<path d="M2285 890 c-58 -38 -80 -85 -51 -109 33 -27 90 41 84 100 l-3 29 -30
-20z m9 -32 c-21 -37 -47 -69 -51 -64 -6 6 44 76 53 76 3 0 2 -6 -2 -12z"/>
<path d="M813 808 c-29 -33 -34 -55 -17 -73 20 -20 31 -19 44 4 12 23 13 61 2
79 -6 9 -13 7 -29 -10z"/>
<path d="M2157 824 c-10 -11 -9 -62 3 -85 17 -31 30 -22 19 13 -5 17 -7 34 -4
36 3 3 8 -9 11 -26 8 -38 24 -43 24 -8 0 28 -41 82 -53 70z"/>
<path d="M690 754 c0 -26 31 -84 54 -99 31 -23 55 -18 62 10 8 31 -14 59 -68
86 -45 23 -48 23 -48 3z m80 -59 c19 -19 29 -35 24 -35 -6 0 -25 16 -44 35
-19 19 -29 35 -24 35 6 0 25 -16 44 -35z"/>
<path d="M2249 747 c-44 -23 -80 -69 -66 -83 4 -4 25 10 47 31 22 22 40 34 40
28 0 -6 -19 -27 -42 -47 -41 -34 -42 -36 -17 -36 31 0 66 32 85 76 26 61 19
66 -47 31z"/>
<path d="M2110 685 c-12 -38 -7 -85 10 -85 6 0 11 17 11 38 l2 37 6 -40 c6
-38 7 -39 19 -18 10 18 10 29 -2 57 -20 48 -33 51 -46 11z"/>
<path d="M852 697 c-19 -22 -25 -66 -12 -82 32 -39 68 9 49 65 -12 33 -21 37
-37 17z"/>
<path d="M730 619 c0 -20 30 -68 56 -88 49 -38 105 -20 89 29 -10 32 -145 87
-145 59z m125 -73 c11 -8 16 -16 12 -16 -15 0 -83 39 -98 56 -11 14 -7 13 26
-4 22 -11 49 -27 60 -36z"/>
<path d="M2213 618 c-86 -19 -136 -108 -61 -108 16 0 38 5 48 10 18 9 70 87
70 103 0 8 -1 8 -57 -5z m1 -43 c-30 -24 -75 -47 -81 -42 -3 3 8 13 24 23 15
9 37 23 48 30 27 16 34 8 9 -11z"/>
<path d="M2050 590 c-24 -45 -29 -78 -14 -97 12 -17 13 -16 14 12 0 17 5 37
11 45 8 11 9 4 4 -29 -5 -39 -4 -43 10 -31 19 16 20 80 1 105 -13 18 -14 18
-26 -5z"/>
<path d="M911 567 c-9 -26 -9 -41 0 -61 18 -39 28 -32 23 17 l-4 42 11 -43
c11 -46 29 -48 29 -4 0 31 -20 74 -37 79 -6 2 -16 -11 -22 -30z"/>
<path d="M1006 484 c-14 -37 3 -98 32 -109 11 -4 13 0 8 17 -16 52 -15 61 2
24 12 -27 21 -36 26 -27 11 17 0 53 -25 84 -24 31 -34 34 -43 11z"/>
<path d="M1943 467 c-22 -32 -31 -87 -15 -87 5 0 15 19 22 43 8 25 15 35 17
25 3 -9 -1 -26 -6 -37 -17 -31 -14 -46 5 -30 23 19 36 58 29 91 -9 37 -25 35
-52 -5z"/>
<path d="M820 481 l-25 -7 41 -42 c43 -44 79 -58 120 -48 20 5 25 12 22 33 -5
45 -97 82 -158 64z m110 -49 c24 -8 39 -17 32 -20 -17 -5 -99 26 -109 40 -4 8
0 9 13 4 10 -5 39 -15 64 -24z"/>
<path d="M2086 475 c-42 -15 -74 -40 -64 -51 4 -3 32 4 64 15 31 12 59 19 62
17 8 -8 -80 -46 -106 -46 -35 0 -21 -24 17 -28 37 -4 91 26 121 67 l20 29 -31
6 c-39 8 -36 8 -83 -9z"/>
<path d="M1123 405 c-3 -9 0 -34 6 -56 14 -47 50 -70 76 -49 21 18 19 34 -11
69 -36 43 -62 57 -71 36z"/>
<path d="M1819 381 c-44 -44 -50 -76 -17 -87 32 -10 68 35 68 87 0 21 -3 39
-6 39 -4 0 -24 -17 -45 -39z m11 -46 c-12 -20 -25 -34 -27 -31 -3 3 5 21 17
41 12 20 25 34 27 31 3 -3 -5 -21 -17 -41z"/>
<path d="M948 358 c-21 -5 -38 -14 -38 -18 0 -4 21 -22 47 -39 70 -46 153 -41
153 9 0 42 -88 68 -162 48z m127 -37 c21 -5 25 -8 15 -13 -16 -6 -118 7 -128
17 -7 7 76 4 113 -4z"/>
<path d="M1950 361 c-50 -10 -60 -18 -60 -51 0 -31 14 -40 66 -40 41 0 80 18
112 53 l24 25 -52 11 c-28 6 -52 10 -53 10 -1 -1 -18 -4 -37 -8z m88 -36 c-10
-10 -112 -23 -128 -17 -10 5 -6 8 15 13 37 8 120 11 113 4z"/>
<path d="M1270 326 c0 -33 46 -86 75 -86 57 0 52 54 -8 90 -44 27 -67 26 -67
-4z m71 -43 l34 -37 -34 25 c-19 14 -37 31 -39 37 -6 20 2 14 39 -25z"/>
<path d="M1675 338 c-36 -19 -65 -51 -65 -70 0 -19 39 -34 64 -25 19 8 43 44
51 80 6 22 4 27 -11 27 -11 0 -28 -6 -39 -12z m25 -22 c0 -10 -65 -65 -70 -60
-2 3 11 19 30 35 37 30 40 32 40 25z"/>
<path d="M1150 271 c-43 -13 -91 -41 -85 -50 12 -20 77 -41 124 -41 50 0 91
23 91 50 0 6 -9 19 -20 30 -21 21 -63 25 -110 11z m95 -41 c-11 -5 -47 -8 -80
-8 -60 1 -60 1 -15 8 25 4 61 7 80 8 28 0 31 -1 15 -8z"/>
<path d="M1741 261 c-11 -11 -21 -27 -21 -35 0 -46 111 -61 180 -26 22 11 40
22 40 25 0 12 -87 47 -129 52 -41 5 -52 2 -70 -16z m104 -31 l50 -7 -60 -1
c-33 0 -69 3 -80 8 -17 7 -16 9 10 8 17 0 53 -3 80 -8z"/>
<path d="M1345 217 c-52 -25 -103 -72 -91 -84 9 -9 120 -17 148 -10 31 8 68
44 68 65 -1 50 -54 63 -125 29z m99 -21 c-24 -17 -137 -56 -143 -50 -6 6 -3 7
69 36 74 30 105 36 74 14z"/>
<path d="M1542 219 c-26 -27 -18 -56 22 -81 25 -15 45 -18 103 -16 39 2 75 7
80 12 13 13 -64 73 -115 90 -59 21 -67 20 -90 -5z m79 -35 c74 -30 96 -46 48
-35 -40 9 -129 47 -129 55 0 10 15 6 81 -20z"/>
</g>
</svg>
